<?xml version="1.0" encoding="utf-8"?>
<!-- Generator: Adobe Illustrator 22.0.1, SVG Export Plug-In . SVG Version: 6.00 Build 0)  -->
<svg version="1.1" id="Layer_1" xmlns="http://www.w3.org/2000/svg" xmlns:xlink="http://www.w3.org/1999/xlink" x="0px" y="0px"
	 viewBox="0 0 460 160" style="enable-background:new 0 0 460 160;" xml:space="preserve">
<style type="text/css">
	.st0{fill:#ffffff;}
</style>
<g>
	<path class="st0" d="M272.9,40.4c-13,0-25,4.7-34.3,12.5V22.3c0-7.3-5.9-13.2-13.2-13.2h-6.6v85.8c0,0.2,0,0.5,0,0.7s0,0.5,0,0.7
		c0.2,16.9,7.9,32,19.8,42c9.3,7.8,21.3,12.5,34.3,12.5c29.9,0,54.2-24.7,54.2-55.2C327.1,65.1,302.9,40.4,272.9,40.4z M272.9,129.9
		c-18.7,0-33.9-14.9-34.3-33.4v-1.8c0.5-18.5,15.7-33.4,34.3-33.4c19,0,34.3,15.4,34.3,34.3C307.3,114.6,291.9,129.9,272.9,129.9z"
		/>
	<circle class="st0" cx="189.1" cy="19.5" r="10.4"/>
	<path class="st0" d="M449.9,95.6c0-30.5-24.2-55.2-54.2-55.2c-29.9,0-54.2,24.7-54.2,55.2s24.2,55.2,54.2,55.2h16.5v-11.3l0,0
		c0-5.3-4.3-9.5-9.5-9.5h-6.9c-15.5,0-28.6-10.3-32.9-24.4h86.1C449.6,102.3,449.9,99,449.9,95.6z M362.9,85.7
		c4.2-14.1,17.4-24.4,32.9-24.4s28.6,10.3,32.9,24.4H362.9z"/>
	<path class="st0" d="M179.3,40.4L179.3,40.4c-13.5,0-25.3,7.2-31.9,18.1l-1,1.7c-0.1,0.1-0.1,0.2-0.2,0.3l-18.5,32.1l-15,25.9
		l-3.7,6.4c-3.3,3.8-8.1,6.1-13.5,6.1c-5.5,0-10.5-2.5-13.8-6.5l-3.2-5.6L63.2,92.6L38.1,49.2c-3.2-5.5-9-8.8-15.3-8.8H10.1
		l52.6,91.2c0.2,0.3,0.4,0.7,0.6,1c6.4,10.5,17.6,17.7,30.5,18.2c0.5,0,1,0,1.5,0s0.9,0,1.4,0c12.3-0.5,23.2-7,29.7-16.7
		c1-1.4,1.8-2.9,2.6-4.5l17.9-31l16.9-29.2c0,0,0-0.1,0.1-0.1c3.1-5.2,8.8-8.7,15.3-8.7v77.1c0,7.3,5.9,13.2,13.2,13.2h6.5V40.4
		H179.3z"/>
</g>
</svg>
